<?xml version="1.0" encoding="UTF-8"?>
<svg width="15px" height="12px" viewBox="0 0 15 12" version="1.1" xmlns="http://www.w3.org/2000/svg" xmlns:xlink="http://www.w3.org/1999/xlink">
    <!-- Generator: sketchtool 49.1 (51147) - http://www.bohemiancoding.com/sketch -->
    <title>02D2F898-9100-47EE-A8BE-94A35DFE3009</title>
    <desc>Created with sketchtool.</desc>
    <defs></defs>
    <g id="z" stroke="none" stroke-width="1" fill="none" fill-rule="evenodd">
        <g id="5-LAWN-CARE-IN-KANSAS-CITY-" transform="translate(-1006.000000, -35.000000)" fill="#FFFFFF" fill-rule="nonzero">
            <g id="1-Banner">
                <g id="Group-47" transform="translate(100.000000, 20.000000)">
                    <g id="Button" transform="translate(665.000000, 0.000000)">
                        <g id="Group-55" transform="translate(0.000000, 9.000000)">
                            <path d="M253.029603,12.8740068 C253.025737,12.8740516 253.021866,12.8740741 253.017989,12.8740741 L241.982011,12.8740741 C241.439661,12.8740741 241,12.434413 241,11.8920635 C241,11.349714 241.439661,10.9100529 241.982011,10.9100529 L252.808448,10.9100529 L249.25181,7.43458516 C248.916063,7.10651836 248.916063,6.57438248 249.25181,6.24628912 C249.587529,5.91790363 250.132104,5.91790363 250.467986,6.24628912 L255.74815,11.4059383 C255.915995,11.569985 256,11.7850224 256,12.0001129 C256,12.2150971 255.916159,12.4299752 255.748285,12.5941015 L250.468122,17.7538304 C250.13224,18.0820565 249.587692,18.0820565 249.251946,17.7538304 C248.916199,17.425737 248.916199,16.8936543 249.251946,16.5654281 L253.029603,12.8740068 Z" id="Combined-Shape-Copy-4"></path>
                        </g>
                    </g>
                </g>
            </g>
        </g>
    </g>
</svg>