<?xml version="1.0" encoding="UTF-8"?>
<svg width="1366px" height="814px" viewBox="0 0 1366 814" version="1.1" xmlns="http://www.w3.org/2000/svg" xmlns:xlink="http://www.w3.org/1999/xlink">
    <!-- Generator: sketchtool 49.1 (51147) - http://www.bohemiancoding.com/sketch -->
    <title>5A5924A7-7EF0-4126-9518-E66037F3FCA7</title>
    <desc>Created with sketchtool.</desc>
    <defs>
        <polygon id="path-1" points="0 0 1366 0 1366 814 0 814"></polygon>
    </defs>
    <g id="z" stroke="none" stroke-width="1" fill="none" fill-rule="evenodd">
        <g id="1-Home-Page-" transform="translate(0.000000, -5061.000000)">
            <g id="6-Footer" transform="translate(0.000000, 5061.000000)">
                <g id="bg">
                    <mask id="mask-2" fill="white">
                        <use xlink:href="#path-1"></use>
                    </mask>
                    <use id="Mask" fill="#0A3755" xlink:href="#path-1"></use>
                    <path d="M627.66551,378.403935 C640.672132,378.403935 664.642867,359.26885 664.642867,346.262228 C664.642867,333.255606 644.971661,326.352698 631.965039,326.352698 C618.958417,326.352698 593.043915,328.407632 593.043915,341.414254 C593.043915,354.420876 614.658888,378.403935 627.66551,378.403935 Z" id="Oval-3" fill="#FFFFFF" opacity="0.0305706522" mask="url(#mask-2)" transform="translate(628.843391, 352.378317) rotate(11.000000) translate(-628.843391, -352.378317) "></path>
                    <path d="M943.92978,470.403935 C956.936402,470.403935 980.907137,451.26885 980.907137,438.262228 C980.907137,425.255606 961.235931,418.352698 948.229309,418.352698 C935.222687,418.352698 909.308185,420.407632 909.308185,433.414254 C909.308185,446.420876 930.923158,470.403935 943.92978,470.403935 Z" id="Oval-3-Copy-16" fill="#FFFFFF" opacity="0.0146059783" mask="url(#mask-2)" transform="translate(945.107661, 444.378317) rotate(11.000000) translate(-945.107661, -444.378317) "></path>
                    <path d="M93.92978,711.403935 C106.936402,711.403935 130.907137,692.26885 130.907137,679.262228 C130.907137,666.255606 111.235931,659.352698 98.2293089,659.352698 C85.2226869,659.352698 59.3081849,661.407632 59.3081849,674.414254 C59.3081849,687.420876 80.923158,711.403935 93.92978,711.403935 Z" id="Oval-3-Copy-17" fill="#FFFFFF" opacity="0.0146059783" mask="url(#mask-2)" transform="translate(95.107661, 685.378317) rotate(11.000000) translate(-95.107661, -685.378317) "></path>
                    <path d="M423.92978,743.403935 C436.936402,743.403935 460.907137,724.26885 460.907137,711.262228 C460.907137,698.255606 441.235931,691.352698 428.229309,691.352698 C415.222687,691.352698 389.308185,693.407632 389.308185,706.414254 C389.308185,719.420876 410.923158,743.403935 423.92978,743.403935 Z" id="Oval-3-Copy-19" fill="#FFFFFF" opacity="0.0146059783" mask="url(#mask-2)" transform="translate(425.107661, 717.378317) rotate(11.000000) translate(-425.107661, -717.378317) "></path>
                    <path d="M333.980616,291.351528 C342.076142,291.351528 356.995904,279.44155 356.995904,271.346024 C356.995904,263.250498 344.752236,258.954019 336.65671,258.954019 C328.561184,258.954019 312.43159,260.233042 312.43159,268.328569 C312.43159,276.424095 325.88509,291.351528 333.980616,291.351528 Z" id="Oval-3-Copy-15" fill="#FFFFFF" opacity="0.0163043478" mask="url(#mask-2)" transform="translate(334.713747, 275.152774) rotate(11.000000) translate(-334.713747, -275.152774) "></path>
                    <path d="M903.92978,204.403935 C916.936402,204.403935 940.907137,185.26885 940.907137,172.262228 C940.907137,159.255606 921.235931,152.352698 908.229309,152.352698 C895.222687,152.352698 869.308185,154.407632 869.308185,167.414254 C869.308185,180.420876 890.923158,204.403935 903.92978,204.403935 Z" id="Oval-3-Copy-14" fill="#FFFFFF" opacity="0.0380434783" mask="url(#mask-2)" transform="translate(905.107661, 178.378317) rotate(11.000000) translate(-905.107661, -178.378317) "></path>
                    <path d="M739.063573,645.107274 C755.790047,645.107274 786.616336,620.499616 786.616336,603.773142 C786.616336,587.046667 761.319228,578.16955 744.592753,578.16955 C727.866279,578.16955 694.540312,580.812188 694.540312,597.538662 C694.540312,614.265137 722.337099,645.107274 739.063573,645.107274 Z" id="Oval-3-Copy-13" fill="#FFFFFF" opacity="0.0380434783" mask="url(#mask-2)" transform="translate(740.578324, 611.638412) rotate(11.000000) translate(-740.578324, -611.638412) "></path>
                    <path d="M1148.32204,406.99052 C1158.78688,406.99052 1178.07321,391.594852 1178.07321,381.13001 C1178.07321,370.665169 1162.24619,365.111241 1151.78135,365.111241 C1141.31651,365.111241 1120.46627,366.764596 1120.46627,377.229437 C1120.46627,387.694279 1137.8572,406.99052 1148.32204,406.99052 Z" id="Oval-3-Copy-12" fill="#FFFFFF" opacity="0.0268342391" mask="url(#mask-2)" transform="translate(1149.269740, 386.050880) rotate(11.000000) translate(-1149.269740, -386.050880) "></path>
                    <path d="M1365.32204,269.99052 C1375.78688,269.99052 1395.07321,254.594852 1395.07321,244.13001 C1395.07321,233.665169 1379.24619,228.111241 1368.78135,228.111241 C1358.31651,228.111241 1337.46627,229.764596 1337.46627,240.229437 C1337.46627,250.694279 1354.8572,269.99052 1365.32204,269.99052 Z" id="Oval-3-Copy-21" fill="#FFFFFF" opacity="0.0268342391" mask="url(#mask-2)" transform="translate(1366.269740, 249.050880) rotate(11.000000) translate(-1366.269740, -249.050880) "></path>
                    <path d="M1083.32204,778.99052 C1093.78688,778.99052 1113.07321,763.594852 1113.07321,753.13001 C1113.07321,742.665169 1097.24619,737.111241 1086.78135,737.111241 C1076.31651,737.111241 1055.46627,738.764596 1055.46627,749.229437 C1055.46627,759.694279 1072.8572,778.99052 1083.32204,778.99052 Z" id="Oval-3-Copy-20" fill="#FFFFFF" opacity="0.0268342391" mask="url(#mask-2)" transform="translate(1084.269740, 758.050880) rotate(11.000000) translate(-1084.269740, -758.050880) "></path>
                    <path d="M159.662055,450.49919 C168.235868,450.49919 184.037096,437.885566 184.037096,429.311753 C184.037096,420.73794 171.070067,416.187624 162.496254,416.187624 C153.922441,416.187624 136.839905,417.542213 136.839905,426.116025 C136.839905,434.689838 151.088242,450.49919 159.662055,450.49919 Z" id="Oval-3-Copy-11" fill="#FFFFFF" opacity="0.0529325181" mask="url(#mask-2)" transform="translate(160.438500, 433.343407) rotate(11.000000) translate(-160.438500, -433.343407) "></path>
                    <path d="M1364.0143,601.535499 C1383.73126,601.535499 1420.06889,572.528305 1420.06889,552.811349 C1420.06889,533.094394 1390.24899,522.630161 1370.53203,522.630161 C1350.81507,522.630161 1311.53085,525.74527 1311.53085,545.462225 C1311.53085,565.17918 1344.29735,601.535499 1364.0143,601.535499 Z" id="Oval-3-Copy-8" fill="#FFFFFF" opacity="0.0301743659" mask="url(#mask-2)" transform="translate(1365.799872, 562.082830) rotate(11.000000) translate(-1365.799872, -562.082830) "></path>
                    <path d="M93.7951273,240.719308 C108.876293,240.719308 136.670338,218.532195 136.670338,203.451029 C136.670338,188.369863 113.861593,180.365947 98.780427,180.365947 C83.699261,180.365947 53.6514204,182.748641 53.6514204,197.829807 C53.6514204,212.910973 78.7139614,240.719308 93.7951273,240.719308 Z" id="Oval-3-Copy-9" fill="#FFFFFF" opacity="0.0317028986" mask="url(#mask-2)" transform="translate(95.160879, 210.542628) rotate(11.000000) translate(-95.160879, -210.542628) "></path>
                    <path d="M1204.41605,184.637973 C1223.93312,184.637973 1259.90239,155.924838 1259.90239,136.407763 C1259.90239,116.890688 1230.38478,106.532536 1210.8677,106.532536 C1191.35063,106.532536 1152.46464,109.616065 1152.46464,129.13314 C1152.46464,148.650215 1184.89897,184.637973 1204.41605,184.637973 Z" id="Oval-3-Copy-10" fill="#FFFFFF" opacity="0.0237205616" mask="url(#mask-2)" transform="translate(1206.183515, 145.585254) rotate(11.000000) translate(-1206.183515, -145.585254) "></path>
                </g>
            </g>
        </g>
    </g>
</svg>