<?xml version="1.0" encoding="UTF-8"?>
<svg width="1366px" height="583px" viewBox="0 0 1366 583" version="1.1" xmlns="http://www.w3.org/2000/svg" xmlns:xlink="http://www.w3.org/1999/xlink">
    <!-- Generator: sketchtool 49.1 (51147) - http://www.bohemiancoding.com/sketch -->
    <title>66F4A9BE-AD57-4C04-93A1-98272A658B4C</title>
    <desc>Created with sketchtool.</desc>
    <defs>
        <path d="M0,96 C211.052083,32 494.395833,-9.53418478e-14 850.03125,0 C1205.66667,7.58958868e-14 1457.65625,32 1606,96 L1606,583 L50,583 L0,96 Z" id="path-1"></path>
    </defs>
    <g id="z" stroke="none" stroke-width="1" fill="none" fill-rule="evenodd">
        <g id="1-Home-Page-" transform="translate(0.000000, -1687.000000)">
            <g id="Video" transform="translate(-138.000000, 1687.000000)">
                <g id="BG">
                    <mask id="mask-2" fill="white">
                        <use xlink:href="#path-1"></use>
                    </mask>
                    <use id="Mask" fill="#0A3755" xlink:href="#path-1"></use>
                    <path d="M1437.36809,228.578877 C1474.91079,228.578877 1544.10064,173.346791 1544.10064,135.804086 C1544.10064,98.2613804 1487.32108,78.336619 1449.77838,78.336619 C1412.23567,78.336619 1337.43527,84.2680421 1337.43527,121.810747 C1337.43527,159.353453 1399.82538,228.578877 1437.36809,228.578877 Z" id="Oval-3" fill="#FFFFFF" opacity="0.0529325181" mask="url(#mask-2)" transform="translate(1440.767959, 153.457748) rotate(11.000000) translate(-1440.767959, -153.457748) "></path>
                    <path d="M1276.38491,397.092922 C1298.23031,397.092922 1338.4906,364.954396 1338.4906,343.108992 C1338.4906,321.263588 1305.45163,309.669739 1283.60622,309.669739 C1261.76082,309.669739 1218.23586,313.121124 1218.23586,334.966528 C1218.23586,356.811932 1254.5395,397.092922 1276.38491,397.092922 Z" id="Oval-3-Copy-2" fill="#FFFFFF" opacity="0.0419497283" mask="url(#mask-2)" transform="translate(1278.363229, 353.381330) rotate(11.000000) translate(-1278.363229, -353.381330) "></path>
                    <path d="M254.743022,149.62066 C263.343886,149.62066 279.194969,136.967238 279.194969,128.366374 C279.194969,119.76551 266.187028,115.200837 257.586163,115.200837 C248.985299,115.200837 231.848865,116.559699 231.848865,125.160563 C231.848865,133.761428 246.142158,149.62066 254.743022,149.62066 Z" id="Oval-3-Copy-7" fill="#FFFFFF" opacity="0.0419497283" mask="url(#mask-2)" transform="translate(255.521917, 132.410748) rotate(11.000000) translate(-255.521917, -132.410748) "></path>
                    <path d="M1353.98439,498.779659 C1359.50285,498.779659 1369.67317,490.661013 1369.67317,485.142555 C1369.67317,479.624097 1361.32706,476.695327 1355.8086,476.695327 C1350.29014,476.695327 1339.29512,477.567196 1339.29512,483.085653 C1339.29512,488.604111 1348.46593,498.779659 1353.98439,498.779659 Z" id="Oval-3-Copy-5" fill="#FFFFFF" opacity="0.0419497283" mask="url(#mask-2)" transform="translate(1354.484145, 487.737493) rotate(11.000000) translate(-1354.484145, -487.737493) "></path>
                    <path d="M1193.98439,498.779659 C1199.50285,498.779659 1209.67317,490.661013 1209.67317,485.142555 C1209.67317,479.624097 1201.32706,476.695327 1195.8086,476.695327 C1190.29014,476.695327 1179.29512,477.567196 1179.29512,483.085653 C1179.29512,488.604111 1188.46593,498.779659 1193.98439,498.779659 Z" id="Oval-3-Copy-6" fill="#FFFFFF" opacity="0.0419497283" mask="url(#mask-2)" transform="translate(1194.484145, 487.737493) rotate(11.000000) translate(-1194.484145, -487.737493) "></path>
                    <path d="M620.705523,141.576302 C645.999093,141.576302 692.614229,104.364902 692.614229,79.0713318 C692.614229,53.7777617 654.360252,40.3538929 629.066682,40.3538929 C603.773112,40.3538929 553.377992,44.3500584 553.377992,69.6436285 C553.377992,94.9371986 595.411953,141.576302 620.705523,141.576302 Z" id="Oval-3-Copy-3" fill="#FFFFFF" opacity="0.0347599638" mask="url(#mask-2)" transform="translate(622.996111, 90.965098) rotate(11.000000) translate(-622.996111, -90.965098) "></path>
                    <path d="M279.705523,395.576302 C304.999093,395.576302 351.614229,358.364902 351.614229,333.071332 C351.614229,307.777762 313.360252,294.353893 288.066682,294.353893 C262.773112,294.353893 212.377992,298.350058 212.377992,323.643629 C212.377992,348.937199 254.411953,395.576302 279.705523,395.576302 Z" id="Oval-3-Copy-4" fill="#FFFFFF" opacity="0.0347599638" mask="url(#mask-2)" transform="translate(281.996111, 344.965098) rotate(11.000000) translate(-281.996111, -344.965098) "></path>
                </g>
            </g>
        </g>
    </g>
</svg>