<?xml version="1.0" encoding="UTF-8"?>
<svg width="9px" height="20px" viewBox="0 0 9 20" version="1.1" xmlns="http://www.w3.org/2000/svg" xmlns:xlink="http://www.w3.org/1999/xlink">
    <!-- Generator: sketchtool 49.1 (51147) - http://www.bohemiancoding.com/sketch -->
    <title>8E3CD887-D3AE-4EF5-91A2-8560DC11E332</title>
    <desc>Created with sketchtool.</desc>
    <defs></defs>
    <g id="z" stroke="none" stroke-width="1" fill="none" fill-rule="evenodd">
        <g id="10-1-Home-Page---2-Iteration" transform="translate(-881.000000, -239.000000)" fill="#FF9000" stroke="#FF9000">
            <g id="Group-2" transform="translate(246.000000, 130.000000)">
                <g id="Group-40" transform="translate(0.000000, 88.000000)">
                    <g id="Group-38" transform="translate(246.000000, 0.000000)">
                        <g id="Group-31">
                            <g id="Group-32">
                                <g id="arrow-copy" transform="translate(392.743252, 30.784131) rotate(-13.000000) translate(-392.743252, -30.784131) translate(389.243252, 21.284131)">
                                    <path d="M1.20694994,17.9125736 C1.22447094,17.9307253 1.24199193,17.948877 1.26132544,17.9670287 C1.30835265,18.0158454 1.36133263,18.0585354 1.41901437,18.0940906 C1.43841104,18.1106746 1.45970628,18.1248922 1.48245244,18.1364446 C1.49453589,18.1424952 1.5029943,18.1485457 1.51507774,18.1545963 C1.58462444,18.1900315 1.65920885,18.2145212 1.73620475,18.2272031 C1.83977386,18.2381664 1.92171562,18.2340633 2.00083215,18.215102 C2.01190612,18.2181393 2.02359182,18.2181393 2.03466579,18.215102 L6.10920277,17.3498708 C6.30712928,17.3173272 6.48156057,17.2012055 6.58813586,17.0310373 C6.69471116,16.8608692 6.72316077,16.6530521 6.6662495,16.4604374 C6.38591362,15.9642909 6.04153549,16.0974034 5.64882359,16.1881619 L2.73490131,16.91423 C3.8507203,15.1413181 4.7669969,13.2500751 5.46696778,11.2751012 C7.13290687,5.72165728 6.46547593,3.85246821 3.35543019,0.0783631585 C3.02744821,-0.0692059485 2.64127069,0.0597083629 2.46729713,0.374840959 C2.45049051,0.407797181 2.43673831,0.442228013 2.42621342,0.477700604 C2.3344528,0.881392095 2.62140404,0.852288644 2.95425988,1.42158911 C5.0745312,5.04799829 5.26646704,5.34988956 4.45860446,10.7789547 C3.85284937,12.7329343 2.98866176,14.596924 1.8890603,16.3212744 L1.18882478,12.4065573 C1.16707458,12.0072199 1.02811499,11.5050228 0.599756933,11.5957813 C0.435216086,11.5932697 0.27774415,11.6626604 0.168430871,11.785847 C0.059117592,11.9090335 0.00880697799,12.0737957 0.0306267672,12.2371414 L1.02026075,17.4648316 C1.02649186,17.5374447 1.04317868,17.6087732 1.06980287,17.6766015 C1.10298983,17.7661231 1.14928992,17.8437434 1.20694994,17.9125736 Z" id="Forma_1_copy_2"></path>
                                </g>
                            </g>
                        </g>
                    </g>
                </g>
            </g>
        </g>
    </g>
</svg>